<?xml version="1.0" encoding="iso-8859-1"?>
<!-- Generator: Adobe Illustrator 19.0.0, SVG Export Plug-In . SVG Version: 6.00 Build 0)  -->
<svg xmlns="http://www.w3.org/2000/svg" xmlns:xlink="http://www.w3.org/1999/xlink" version="1.1" id="Layer_1" x="0px" y="0px" viewBox="0 0 512 512" style="enable-background:new 0 0 512 512;" xml:space="preserve" width="512px" height="512px">
<g>
	<g>
		<path d="M510.358,377.064L441.19,275.758h25.657c3.497,0,6.708-1.935,8.341-5.028c1.633-3.093,1.422-6.835-0.55-9.724    l-45.457-66.58h8.474c3.497,0,6.708-1.935,8.341-5.028c1.633-3.093,1.422-6.835-0.55-9.724l-40.887-59.887    c-1.543-2.259-4.102-3.611-6.839-3.611s-5.296,1.352-6.839,3.611l-40.887,59.887c-1.972,2.889-2.184,6.631-0.55,9.724    s4.843,5.028,8.341,5.028h8.474l-45.457,66.58c-1.972,2.889-2.184,6.631-0.55,9.724c1.633,3.093,4.843,5.028,8.341,5.028h25.657    l-33.985,49.777l40.984,66.282h9.305v15.049l34.554,55.884c5.947,9.617,7.732,21.052,5.339,31.789h7.858    c3.638,0,6.587-2.949,6.587-6.587v-96.136h77.677v0.001c3.497,0,6.708-1.935,8.342-5.028    C512.541,383.695,512.33,379.953,510.358,377.064z" fill="#555555"/>
	</g>
</g>
<g>
	<g>
		<path d="M376.674,480.329L197.085,189.887c-1.696-2.743-4.692-4.414-7.917-4.414c-3.225-0.001-6.223,1.667-7.921,4.41    L1.395,480.323c-1.778,2.872-1.862,6.482-0.218,9.435c1.645,2.951,4.757,4.781,8.136,4.781h109.027l54.021-111.706v111.705h33.424    V382.667l54.022,111.872h108.947c3.377,0,6.49-1.828,8.134-4.779C378.532,486.81,378.451,483.201,376.674,480.329z" fill="#555555"/>
	</g>
</g>
<g>
	<g>
		<path d="M161.428,123.601c-0.485-1.004-1.531-1.612-2.643-1.536c-23.899,1.619-47.866-9.732-61.287-31.553    c-13.421-21.82-12.741-48.331-0.517-68.929c0.568-0.958,0.498-2.166-0.179-3.052c-0.677-0.885-1.825-1.269-2.898-0.97    c-5.855,1.629-11.583,4.088-17.018,7.431c-31.333,19.273-41.11,60.297-21.838,91.631c19.271,31.334,60.298,41.111,91.631,21.838    c5.435-3.342,10.213-7.346,14.308-11.836C161.738,125.803,161.913,124.605,161.428,123.601z" fill="#555555"/>
	</g>
</g>
<g>
	<g>
		<path d="M222.321,44.535l-7.072-0.411c-1.149-0.067-2.253-0.461-3.184-1.138l-5.732-4.162c-3.847-2.793-9.261-0.228-9.536,4.517    l-0.411,7.073c-0.067,1.148-0.461,2.253-1.138,3.183l-4.161,5.733c-2.794,3.846-0.229,9.26,4.516,9.535l7.073,0.411    c1.149,0.067,2.253,0.461,3.183,1.138l5.733,4.162c3.847,2.793,9.261,0.228,9.536-4.517l0.411-7.073    c0.067-1.148,0.461-2.253,1.138-3.183l4.161-5.732C229.631,50.223,227.066,44.81,222.321,44.535z" fill="#555555"/>
	</g>
</g>
<g>
	<g>
		<path d="M304.798,122.155l-4.41-5.544c-0.716-0.9-1.159-1.987-1.276-3.131l-0.722-7.047c-0.485-4.73-6.005-7.053-9.725-4.093    l-5.544,4.41c-0.9,0.716-1.987,1.159-3.131,1.276l-7.047,0.722c-4.728,0.485-7.053,6.005-4.093,9.725l4.409,5.544    c0.716,0.9,1.159,1.987,1.277,3.131l0.722,7.047c0.485,4.728,6.005,7.053,9.725,4.093l5.544-4.41    c0.9-0.716,1.987-1.159,3.131-1.276l7.047-0.722C305.433,131.396,307.757,125.874,304.798,122.155z" fill="#555555"/>
	</g>
</g>
<g>
	<g>
		<path d="M379.085,44.122l-4.41-5.544c-0.716-0.9-1.159-1.987-1.277-3.131l-0.722-7.047c-0.485-4.728-6.005-7.053-9.725-4.093    l-5.544,4.41c-0.9,0.716-1.987,1.159-3.131,1.277l-7.047,0.722c-4.728,0.485-7.053,6.005-4.093,9.725l4.411,5.543    c0.716,0.9,1.159,1.987,1.276,3.131l0.722,7.047c0.485,4.728,6.005,7.053,9.725,4.093l5.544-4.41    c0.9-0.716,1.987-1.159,3.131-1.276l7.047-0.722C379.72,53.363,382.044,47.842,379.085,44.122z" fill="#555555"/>
	</g>
</g>
<g>
</g>
<g>
</g>
<g>
</g>
<g>
</g>
<g>
</g>
<g>
</g>
<g>
</g>
<g>
</g>
<g>
</g>
<g>
</g>
<g>
</g>
<g>
</g>
<g>
</g>
<g>
</g>
<g>
</g>
</svg>
